HIERARCHY
ROOT Hips
{
	OFFSET 0.00000 0.00000 0.00000
	CHANNELS 6 Xposition Yposition Zposition Zrotation Yrotation Xrotation 
	JOINT LHipJoint
	{
		OFFSET 0 0 0
		CHANNELS 3 Zrotation Yrotation Xrotation
		JOINT LeftUpLeg
		{
			OFFSET 1.53794 -1.55850 0.93568
			CHANNELS 3 Zrotation Yrotation Xrotation
			JOINT LeftLeg
			{
				OFFSET 2.28545 -6.27922 0.00000
				CHANNELS 3 Zrotation Yrotation Xrotation
				JOINT LeftFoot
				{
					OFFSET 2.37329 -6.52057 0.00000
					CHANNELS 3 Zrotation Yrotation Xrotation
					JOINT LeftToeBase
					{
						OFFSET 0.14846 -0.40788 2.09160
						CHANNELS 3 Zrotation Yrotation Xrotation
						End Site
						{
							OFFSET 0.00000 -0.00000 1.07536
						}
					}
				}
			}
		}
	}
	JOINT RHipJoint
	{
		OFFSET 0 0 0
		CHANNELS 3 Zrotation Yrotation Xrotation
		JOINT RightUpLeg
		{
			OFFSET -1.78290 -1.55850 0.93568
			CHANNELS 3 Zrotation Yrotation Xrotation
			JOINT RightLeg
			{
				OFFSET -2.24144 -6.15831 0.00000
				CHANNELS 3 Zrotation Yrotation Xrotation
				JOINT RightFoot
				{
					OFFSET -2.35091 -6.45907 0.00000
					CHANNELS 3 Zrotation Yrotation Xrotation
					JOINT RightToeBase
					{
						OFFSET -0.14428 -0.39641 2.07944
						CHANNELS 3 Zrotation Yrotation Xrotation
						End Site
						{
							OFFSET -0.00000 -0.00000 1.06864
						}
					}
				}
			}
		}
	}
	JOINT LowerBack
	{
		OFFSET 0 0 0
		CHANNELS 3 Zrotation Yrotation Xrotation
		JOINT Spine
		{
			OFFSET -0.08841 2.11430 -0.15818
			CHANNELS 3 Zrotation Yrotation Xrotation
			JOINT Spine1
			{
				OFFSET -0.00033 2.12605 -0.08097
				CHANNELS 3 Zrotation Yrotation Xrotation
				JOINT Neck
				{
					OFFSET 0 0 0
					CHANNELS 3 Zrotation Yrotation Xrotation
					JOINT Neck1
					{
						OFFSET 0.04431 1.59447 0.43193
						CHANNELS 3 Zrotation Yrotation Xrotation
						JOINT Head
						{
							OFFSET 0.00455 1.62017 -0.58852
							CHANNELS 3 Zrotation Yrotation Xrotation
							End Site
							{
								OFFSET -0.00920 1.72955 -0.25850
							}
						}
					}
				}
				JOINT LeftShoulder
				{
					OFFSET 0 0 0
					CHANNELS 3 Zrotation Yrotation Xrotation
					JOINT LeftArm
					{
						OFFSET 2.86490 1.49927 -0.33774
						CHANNELS 3 Zrotation Yrotation Xrotation
						JOINT LeftForeArm
						{
							OFFSET 4.87408 -0.00000 0.00000
							CHANNELS 3 Zrotation Yrotation Xrotation
							JOINT LeftHand
							{
								OFFSET 2.76729 -0.00000 0.00000
								CHANNELS 3 Zrotation Yrotation Xrotation
								JOINT LeftFingerBase
								{
									OFFSET 0 0 0
									CHANNELS 3 Zrotation Yrotation Xrotation
									JOINT LeftHandIndex1
									{
										OFFSET 0.98922 -0.00000 0.00000
										CHANNELS 3 Zrotation Yrotation Xrotation
										End Site
										{
											OFFSET 0.79753 -0.00000 0.00000
										}
									}
								}
								JOINT LThumb
								{
									OFFSET 0 0 0
									CHANNELS 3 Zrotation Yrotation Xrotation
									End Site
									{
										OFFSET 0.80972 -0.00000 0.80972
									}
								}
							}
						}
					}
				}
				JOINT RightShoulder
				{
					OFFSET 0 0 0
					CHANNELS 3 Zrotation Yrotation Xrotation
					JOINT RightArm
					{
						OFFSET -2.94414 1.45463 -0.25291
						CHANNELS 3 Zrotation Yrotation Xrotation
						JOINT RightForeArm
						{
							OFFSET -4.71404 -0.00000 0.00000
							CHANNELS 3 Zrotation Yrotation Xrotation
							JOINT RightHand
							{
								OFFSET -2.83468 -0.00000 0.00000
								CHANNELS 3 Zrotation Yrotation Xrotation
								JOINT RightFingerBase
								{
									OFFSET 0 0 0
									CHANNELS 3 Zrotation Yrotation Xrotation
									JOINT RightHandIndex1
									{
										OFFSET -0.86820 -0.00000 0.00000
										CHANNELS 3 Zrotation Yrotation Xrotation
										End Site
										{
											OFFSET -0.69996 -0.00000 0.00000
										}
									}
								}
								JOINT RThumb
								{
									OFFSET 0 0 0
									CHANNELS 3 Zrotation Yrotation Xrotation
									End Site
									{
										OFFSET -0.71065 -0.00000 0.71065
									}
								}
							}
						}
					}
				}
			}
		}
	}
}
MOTION
Frames: 15
Frame Time: .0083333
0.6323 15.9405 37.4185 0 0 0 0 0 0 -21 0 0 0 0 0 0 0 0 0 0 0 0 0 0 21 0 0 0 0 0 0 0 0 0 0 0 0 0 0 0 0 0 0 0 0 0 0 -16 0 0 21 0 0 11 0 0 0 -8 0 0 0 0 0 0 0 0 0 0 0 0 0 0 0 0 0 0 0 0 8 0 0 0 0 0 0 0 0 0 0 0 0 0 0 0 0 0
0.6323 15.9405 37.4185 179.2380 1.0260 -168.1760 0.0000 0.0000 0.0000 -18.2828 -16.0344 -31.2551 3.1445 10.9254 32.0286 -0.5750 15.6290 3.0479 0.0601 -1.5821 -4.3521 0.0000 0.0000 0.0000 21.5206 -2.4323 -0.0233 -8.9162 -16.7535 55.8000 -0.2974 -20.7649 16.8909 -1.1179 6.7166 -18.8785 -3.4700 1.2865 -5.5497 -1.6883 2.2049 3.1588 0.4289 1.0175 6.3524 -13.3353 -5.3748 -33.3993 11.4947 -8.8482 38.6393 6.0939 -4.5943 24.5651 -0.0000 -0.0000 0.0000 -63.9587 21.8150 60.7546 124.6823 -54.9273 -89.5242 -0.0000 -0.0000 15.2426 11.9243 3.4686 0.7320 -7.1250 0.0000 -0.0000 -11.9437 33.3473 3.4763 -0.0000 -0.0000 0.0000 76.7761 -11.5341 57.8428 -109.2560 58.5515 -76.5951 0.0000 0.0000 5.8958 -13.0444 -1.9763 0.4578 7.1250 -0.0000 -0.0000 10.8450 -31.8854 3.5354
0.6214 15.8346 37.0335 178.9840 0.6858 -168.4610 0.0000 0.0000 0.0000 -19.2101 -15.7370 -30.3805 3.5832 11.5841 34.2763 -0.8103 16.7336 -0.0089 0.0704 -1.7117 -4.7095 0.0000 0.0000 0.0000 21.0289 -2.6776 -1.8038 -9.9969 -17.4081 59.4779 -0.0634 -20.7164 15.0884 -1.1245 6.7357 -18.9346 -3.8920 1.1210 -5.3686 -1.7110 2.0290 3.2984 0.6195 0.9170 6.3906 -20.5854 -7.8069 -27.9133 17.2350 -12.9241 36.1631 9.5603 -6.9491 24.1429 0.0000 0.0000 0.0000 -64.1902 19.8652 61.5124 123.6840 -55.2456 -88.7055 -0.0000 -0.0000 15.0054 12.1938 3.5708 0.7711 -7.1250 0.0000 -0.0000 -11.7426 33.4597 3.3830 0.0000 0.0000 0.0000 77.3130 -12.7470 56.4160 -106.9842 58.8815 -74.6535 0.0000 0.0000 6.3559 -13.3713 -2.1015 0.4994 7.1250 -0.0000 -0.0000 10.6014 -32.0205 3.4185
0.6093 15.7698 36.6484 178.7000 0.5400 -168.7580 0.0000 0.0000 0.0000 -19.9953 -15.3595 -29.4588 3.9214 12.0550 35.9270 -0.9376 17.3063 -2.2014 0.0929 -1.9657 -5.4108 0.0000 0.0000 0.0000 20.4556 -2.5288 -3.8088 -11.0312 -17.9503 62.8828 0.0257 -20.0086 13.8693 -1.1741 6.8776 -19.3533 -4.3566 1.0179 -4.9039 -1.7396 1.9118 3.2832 0.8259 0.8504 6.1007 -13.1618 -5.4733 -33.0657 11.8081 -9.3306 38.3537 6.0540 -4.6918 24.3487 -0.0000 0.0000 0.0000 -64.8192 17.8911 62.3039 122.0385 -55.7418 -87.3495 -0.0000 -0.0000 15.0358 12.7631 3.6211 0.8196 -7.1250 0.0000 -0.0000 -11.2924 33.5317 3.2287 -0.0000 0.0000 0.0000 78.0200 -14.4877 54.7274 -104.4375 59.1976 -72.4696 0.0000 0.0000 6.6975 -13.5688 -2.0647 0.4982 7.1250 -0.0000 -0.0000 10.4400 -31.9886 3.3730
0.6030 15.6955 36.2753 178.3040 0.5598 -169.1440 0.0000 0.0000 0.0000 -20.9366 -14.7039 -28.3155 4.2495 12.4853 37.4710 -1.0383 17.8436 -4.1840 0.1313 -2.3354 -6.4336 0.0000 0.0000 0.0000 19.7414 -2.2464 -5.7714 -12.0894 -18.4282 66.2720 0.1707 -19.6259 12.3201 -1.1885 6.9183 -19.4735 -5.0703 0.9551 -4.3731 -1.7740 1.8774 3.4383 1.1744 0.8155 5.9462 -12.9830 -5.5523 -33.1243 11.8936 -9.5202 38.1127 5.9848 -4.6853 24.1954 -0.0000 0.0000 0.0000 -65.5433 15.6551 63.0875 120.6356 -56.1382 -86.1872 -0.0000 -0.0000 14.8178 13.2051 4.0974 0.9605 -7.1250 0.0000 -0.0000 -11.0050 34.0284 3.0090 -0.0000 0.0000 0.0000 78.6475 -15.9146 52.9930 -101.8036 59.4669 -70.2039 0.0000 0.0000 6.9871 -14.0220 -2.3041 0.5752 7.1250 -0.0000 -0.0000 10.1090 -32.2436 3.2000
0.5961 15.6124 35.9048 177.9020 0.5551 -169.5040 0.0000 0.0000 0.0000 -21.8607 -14.0793 -27.0834 4.5266 12.8300 38.7356 -1.1341 18.4727 -5.9856 0.1738 -2.6856 -7.4047 0.0000 0.0000 0.0000 18.9997 -1.9891 -7.7462 -13.1458 -18.8342 69.5777 0.2958 -19.2700 10.8467 -1.2062 6.9677 -19.6196 -5.7917 0.8868 -3.8596 -1.7970 1.8272 3.5634 1.5378 0.7735 5.7726 -11.7844 -5.2154 -33.8118 11.1961 -9.1697 38.1785 5.4511 -4.3900 24.1364 0.0000 -0.0000 0.0000 -66.2615 13.4845 63.8530 119.2911 -56.4959 -85.0684 -0.0000 -0.0000 14.6939 13.5888 4.4860 1.0831 -7.1250 0.0000 -0.0000 -10.7508 34.4366 2.8291 0.0000 -0.0000 0.0000 79.2490 -17.3734 51.1799 -99.2897 59.6714 -68.0363 0.0000 0.0000 7.3334 -14.3737 -2.5061 0.6420 7.1250 -0.0000 -0.0000 9.8529 -32.4587 3.0650
0.5913 15.5343 35.5399 177.4310 0.6384 -169.8690 0.0000 0.0000 0.0000 -22.8238 -13.3555 -25.7630 4.7552 13.1027 39.7542 -1.2116 19.0410 -7.4767 0.2290 -3.0799 -8.5012 0.0000 0.0000 0.0000 18.1638 -1.5963 -9.8138 -14.1991 -19.1733 72.8115 0.4162 -18.9593 9.3269 -1.2194 7.0043 -19.7281 -6.6496 0.8425 -3.3006 -1.8121 1.8108 3.7063 1.9871 0.7447 5.5891 -10.3778 -4.7816 -34.6427 10.3194 -8.6896 38.2641 4.8229 -4.0323 24.0851 -0.0000 -0.0000 0.0000 -67.0973 11.2793 64.5896 118.0351 -56.8112 -84.0192 -0.0000 -0.0000 14.6557 13.9085 4.9434 1.2224 -7.1250 0.0000 -0.0000 -10.5579 34.9134 2.6525 -0.0000 -0.0000 0.0000 79.8099 -18.8294 49.2772 -96.8176 59.8236 -65.9007 0.0000 0.0000 7.6750 -14.7359 -2.7441 0.7214 7.1250 -0.0000 -0.0000 9.5919 -32.7120 2.9223
0.5885 15.4609 35.1805 176.8980 0.7885 -170.2110 0.0000 0.0000 0.0000 -23.8208 -12.5614 -24.3812 4.9368 13.3123 40.5491 -1.2814 19.5864 -8.6918 0.2959 -3.4979 -9.6682 0.0000 0.0000 0.0000 17.2493 -1.0850 -11.9865 -15.2234 -19.4439 75.9087 0.5358 -18.7422 7.7526 -1.2270 7.0253 -19.7904 -7.6318 0.8164 -2.7441 -1.8138 1.8198 3.8638 2.5208 0.7245 5.4205 -9.5570 -4.5792 -35.1056 9.8490 -8.4930 38.1868 4.4486 -3.8396 23.9725 -0.0000 0.0000 0.0000 -68.0270 9.0812 65.2819 116.9750 -57.0636 -83.1307 -0.0000 -0.0000 14.7266 14.1343 5.4088 1.3598 -7.1250 0.0000 -0.0000 -10.4431 35.3954 2.4984 -0.0000 0.0000 0.0000 80.3067 -20.2652 47.3210 -94.4807 59.9240 -63.8794 0.0000 0.0000 7.9902 -15.0990 -3.0116 0.8121 7.1250 -0.0000 -0.0000 9.3328 -32.9963 2.7766
0.5870 15.3962 34.8254 176.3310 0.9828 -170.4960 0.0000 0.0000 0.0000 -24.8163 -11.7346 -22.9643 5.0615 13.4527 41.0878 -1.3440 20.0809 -9.6138 0.3724 -3.9196 -10.8505 0.0000 0.0000 0.0000 16.2942 -0.4538 -14.2946 -16.1882 -19.6480 78.7919 0.6513 -18.6134 6.1510 -1.2321 7.0395 -19.8324 -8.6923 0.8028 -2.2269 -1.7931 1.8422 4.0153 3.1222 0.7076 5.2674 -8.7485 -4.3682 -35.5287 9.3455 -8.2780 38.1144 4.0669 -3.6525 23.8518 0.0000 0.0000 0.0000 -69.0482 6.9388 65.9219 116.1522 -57.2510 -82.4394 -0.0000 -0.0000 14.9288 14.2747 5.8032 1.4736 -7.1250 0.0000 -0.0000 -10.3884 35.8022 2.3804 0.0000 0.0000 0.0000 80.7342 -21.7083 45.3320 -92.3672 59.9788 -62.0499 0.0000 0.0000 8.2244 -15.4315 -3.2682 0.9016 7.1250 -0.0000 -0.0000 9.0959 -33.2699 2.6437
0.5855 15.3417 34.4731 175.7790 1.1864 -170.6920 0.0000 0.0000 0.0000 -25.7592 -10.9250 -21.5415 5.1322 13.5312 41.3909 -1.4008 20.5167 -10.2690 0.4544 -4.3245 -11.9914 0.0000 0.0000 0.0000 15.3588 0.2781 -16.7446 -17.0641 -19.7921 81.3873 0.7622 -18.5768 4.5338 -1.2366 7.0517 -19.8685 -9.7552 0.7923 -1.7911 -1.7400 1.8617 4.1462 3.7595 0.6869 5.1407 -7.9304 -4.1341 -35.9111 8.7797 -8.0283 38.0723 3.6638 -3.4676 23.7373 -0.0000 0.0000 0.0000 -70.1384 4.8922 66.5114 115.6140 -57.3697 -81.9865 -0.0000 -0.0000 15.2288 14.3457 6.0627 1.5472 -7.1250 0.0000 -0.0000 -10.3703 36.0690 2.3076 -0.0000 0.0000 0.0000 81.0929 -23.1652 43.3452 -90.5776 59.9987 -60.5002 0.0000 0.0000 8.2999 -15.7123 -3.4917 0.9816 7.1250 -0.0000 -0.0000 8.8959 -33.5087 2.5323
0.5832 15.2997 34.1215 175.3010 1.3633 -170.7800 0.0000 0.0000 0.0000 -26.5898 -10.1782 -20.1223 5.1521 13.5530 41.4756 -1.4502 20.8764 -10.6708 0.5376 -4.6980 -13.0493 0.0000 0.0000 0.0000 14.5150 1.0857 -19.3152 -17.8177 -19.8854 83.6077 0.8673 -18.6288 2.9222 -1.2410 7.0638 -19.9045 -10.7335 0.7739 -1.4603 -1.6414 1.8604 4.2455 4.3983 0.6547 5.0450 -7.0924 -3.8709 -36.2698 8.1267 -7.7302 38.0813 3.2285 -3.2826 23.6488 -0.0000 -0.0000 0.0000 -71.2791 2.9703 67.0578 115.3729 -57.4219 -81.7834 -0.0000 -0.0000 15.5768 14.3793 6.1572 1.5751 -7.1250 0.0000 -0.0000 -10.3575 36.1667 2.2796 -0.0000 -0.0000 0.0000 81.3882 -24.6418 41.3903 -89.1870 59.9975 -59.2960 0.0000 0.0000 8.1618 -15.9230 -3.6519 1.0410 7.1250 -0.0000 -0.0000 8.7446 -33.6807 2.4515
0.5794 15.2725 33.7685 174.9460 1.4836 -170.7600 0.0000 0.0000 0.0000 -27.2588 -9.5249 -18.6936 5.1237 13.5218 41.3545 -1.4888 21.1365 -10.8203 0.6180 -5.0309 -13.9966 0.0000 0.0000 0.0000 13.8244 1.9410 -21.9578 -18.4190 -19.9400 85.3731 0.9654 -18.7575 1.3421 -1.2453 7.0757 -19.9398 -11.5543 0.7394 -1.2330 -1.4860 1.8234 4.3069 5.0105 0.6053 4.9755 -6.2421 -3.5811 -36.6254 7.3764 -7.3759 38.1513 2.7594 -3.0969 23.6040 -0.0000 -0.0000 0.0000 -72.4548 1.1884 67.5747 115.4108 -57.4137 -81.8153 -0.0000 -0.0000 15.9217 14.3993 6.0985 1.5624 -7.1250 0.0000 -0.0000 -10.3316 36.1083 2.2887 -0.0000 -0.0000 0.0000 81.6300 -26.1435 39.4872 -88.2382 59.9883 -58.4743 0.0000 0.0000 7.7926 -16.0492 -3.7311 1.0725 7.1250 -0.0000 -0.0000 8.6518 -33.7668 2.4068
0.5739 15.2611 33.4122 174.7350 1.5269 -170.6510 0.0000 0.0000 0.0000 -27.7468 -8.9772 -17.2274 5.0485 13.4382 41.0317 -1.5118 21.2690 -10.7056 0.6918 -5.3172 -14.8155 0.0000 0.0000 0.0000 13.3145 2.8140 -24.6071 -18.8452 -19.9680 86.6219 1.0548 -18.9441 -0.1795 -1.2488 7.0851 -19.9676 -12.1844 0.6832 -1.0877 -1.2681 1.7411 4.3294 5.5840 0.5353 4.9207 -5.4706 -3.3076 -36.9656 6.5868 -7.0016 38.2670 2.2929 -2.9303 23.6085 0.0000 0.0000 0.0000 -73.6531 -0.4484 68.0780 115.6879 -57.3536 -82.0487 -0.0000 -0.0000 16.2302 14.4210 5.9361 1.5234 -7.1250 0.0000 -0.0000 -10.2883 35.9447 2.3205 0.0000 0.0000 0.0000 81.8290 -27.6722 37.6454 -87.7401 59.9807 -58.0430 0.0000 0.0000 7.2262 -16.0873 -3.7347 1.0762 7.1250 -0.0000 -0.0000 8.6213 -33.7719 2.3970
0.5673 15.2659 33.0515 174.6540 1.4897 -170.4810 0.0000 0.0000 0.0000 -28.0703 -8.5261 -15.6932 4.9262 13.3002 40.5029 -1.5138 21.2450 -10.3012 0.7567 -5.5555 -15.5001 0.0000 0.0000 0.0000 12.9700 3.6814 -27.1964 -19.0838 -19.9799 87.3204 1.1341 -19.1661 -1.6124 -1.2504 7.0895 -19.9808 -12.6398 0.6052 -0.9917 -0.9898 1.6127 4.3139 6.1251 0.4455 4.8635 -4.8376 -3.0800 -37.2727 5.8018 -6.6317 38.4112 1.8543 -2.7946 23.6537 -0.0000 0.0000 0.0000 -74.8608 -1.9383 68.5843 116.1556 -57.2503 -82.4423 -0.0000 -0.0000 16.4901 14.4493 5.7374 1.4756 -7.1250 0.0000 -0.0000 -10.2341 35.7446 2.3587 -0.0000 0.0000 0.0000 81.9952 -29.2297 35.8648 -87.6704 59.9795 -57.9826 0.0000 0.0000 6.5391 -16.0386 -3.6801 1.0571 7.1250 -0.0000 -0.0000 8.6543 -33.7141 2.4187
0.5608 15.2866 32.6858 174.6630 1.3820 -170.2760 0.0000 0.0000 0.0000 -28.2738 -8.1479 -14.0702 4.7563 13.1040 39.7590 -1.4885 21.0321 -9.5841 0.8109 -5.7465 -16.0507 0.0000 0.0000 0.0000 12.7423 4.5273 -29.6697 -19.1316 -19.9819 87.4602 1.2023 -19.4023 -2.9253 -1.2496 7.0873 -19.9742 -12.9765 0.5076 -0.9152 -0.6599 1.4435 4.2625 6.6558 0.3387 4.7891 -4.3654 -2.9095 -37.5318 5.0456 -6.2762 38.5681 1.4561 -2.6927 23.7239 0.0000 -0.0000 0.0000 -76.0637 -3.2812 69.1059 116.7599 -57.1133 -82.9502 -0.0000 -0.0000 16.7071 14.4857 5.5643 1.4350 -7.1250 0.0000 -0.0000 -10.1778 35.5708 2.3891 0.0000 -0.0000 0.0000 82.1370 -30.8116 34.1384 -87.9812 59.9846 -58.2518 0.0000 0.0000 5.8191 -15.9122 -3.5850 1.0212 7.1250 -0.0000 -0.0000 8.7453 -33.6116 2.4665
